<svg width="143" height="203" viewBox="0 0 143 203" fill="none"
    xmlns="http://www.w3.org/2000/svg">
    <path d="M35.2618 51.1062C36.2876 50.5933 38.0314 49.1059 36.8005 47.2595C35.2618 44.9514 19.8749 22.2558 23.7216 4.17617C23.5937 2.89393 22.4145 0.483314 18.7217 1.09879" stroke="white" stroke-width="2" stroke-linecap="round"/>
    <path d="M14.1055 2.63902C15.6442 2.38257 18.6446 2.56209 18.3369 5.33173C18.0291 8.10137 18.2086 9.563 18.3369 9.94761" stroke="white" stroke-width="2" stroke-linecap="round"/>
    <path d="M9.10547 6.86877C10.5159 6.09942 13.4138 5.48395 13.7215 9.1768C14.0293 12.8697 14.8756 13.793 15.2602 13.793" stroke="white" stroke-width="2" stroke-linecap="round"/>
    <path d="M4.48926 9.17707C6.02795 8.53595 9.25919 8.7924 9.87467 14.9472" stroke="white" stroke-width="2" stroke-linecap="round"/>
    <path d="M6.02842 16.4859C5.77197 14.1779 4.6436 9.94652 2.1817 11.4852C-0.280205 13.0239 1.6688 18.7941 2.95104 21.4868C4.74597 24.436 8.33582 31.873 8.33582 38.0277C8.33582 45.7212 5.25844 56.492 16.7986 57.646C26.0307 58.5692 30.6468 65.2112 31.8008 68.4168C38.8532 85.4706 62.4208 120.886 100.273 126.118" stroke="white" stroke-width="2" stroke-linecap="round"/>
    <path d="M100.657 123.426C93.0915 135.864 80.8077 168.817 92.194 201.13" stroke="white" stroke-width="2" stroke-linecap="round"/>
    <path d="M134.893 191.513C136.047 176.767 137.663 143.429 134.893 128.042C131.431 108.808 121.045 101.884 107.966 96.4987C97.5031 92.1903 56.1636 64.1862 36.8018 50.7227" stroke="white" stroke-width="2" stroke-linecap="round"/>
    <path d="M84.1162 196.129C95.6564 201.386 123.276 206.976 141.432 187.281" stroke="white" stroke-width="2" stroke-linecap="round"/>
</svg>
    