<svg width="32" height="32" viewBox="0 0 32 32" fill="none"
    xmlns="http://www.w3.org/2000/svg">
    <path d="M21.333 10.666C23.4547 10.666 25.4896 11.5089 26.9899 13.0092C28.4902 14.5095 29.333 16.5443 29.333 18.666V27.9993H23.9997V18.666C23.9997 17.9588 23.7187 17.2805 23.2186 16.7804C22.7185 16.2803 22.0403 15.9993 21.333 15.9993C20.6258 15.9993 19.9475 16.2803 19.4474 16.7804C18.9473 17.2805 18.6663 17.9588 18.6663 18.666V27.9993H13.333V18.666C13.333 16.5443 14.1759 14.5095 15.6762 13.0092C17.1764 11.5089 19.2113 10.666 21.333 10.666V10.666Z" stroke="white" stroke-width="1.5"/>
    <path d="M8.00033 12H2.66699V28H8.00033V12Z" stroke="white" stroke-width="1.5"/>
    <path d="M5.33366 7.99935C6.80642 7.99935 8.00033 6.80544 8.00033 5.33268C8.00033 3.85992 6.80642 2.66602 5.33366 2.66602C3.8609 2.66602 2.66699 3.85992 2.66699 5.33268C2.66699 6.80544 3.8609 7.99935 5.33366 7.99935Z" stroke="white" stroke-width="1.5"/>
</svg>
    