<svg width="195" height="32" viewBox="0 0 195 32" fill="none"
    xmlns="http://www.w3.org/2000/svg">
    <path d="M0 24.335V0.576317L16.097 17.5489V2.08915H19.4279V25.6893L3.33091 8.76002V24.335H0Z" fill="white"/>
    <path d="M36.4238 10.3017H39.6547V24.335H36.4238V22.8654C35.0991 24.1141 33.6743 24.7384 32.1494 24.7384C30.2243 24.7384 28.6327 24.0372 27.3746 22.6348C26.1261 21.2037 25.5019 19.4171 25.5019 17.2751C25.5019 15.1715 26.1261 13.4186 27.3746 12.0162C28.6231 10.6138 30.1861 9.91265 32.0636 9.91265C33.6838 9.91265 35.1372 10.585 36.4238 11.9298V10.3017ZM28.7899 17.2751C28.7899 18.6198 29.1473 19.7148 29.8621 20.5601C30.5959 21.415 31.5204 21.8424 32.6355 21.8424C33.8268 21.8424 34.7894 21.4294 35.5232 20.6033C36.2571 19.7485 36.624 18.6631 36.624 17.3471C36.624 16.0312 36.2571 14.9458 35.5232 14.091C34.7894 13.2553 33.8363 12.8375 32.6641 12.8375C31.5585 12.8375 30.6341 13.2601 29.8907 14.1054C29.1568 14.9602 28.7899 16.0168 28.7899 17.2751Z" fill="white"/>
    <path d="M48.7879 13.3273V24.335H45.5714V13.3273H44.199V10.3017H45.5714V5.15804H48.7879V10.3017H51.2897V13.3273H48.7879Z" fill="white"/>
    <path d="M65.7553 10.3017H68.9861V24.335H65.7553V22.8654C64.4305 24.1141 63.0057 24.7384 61.4808 24.7384C59.5557 24.7384 57.9641 24.0372 56.7061 22.6348C55.4576 21.2037 54.8333 19.4171 54.8333 17.2751C54.8333 15.1715 55.4576 13.4186 56.7061 12.0162C57.9546 10.6138 59.5176 9.91265 61.3951 9.91265C63.0153 9.91265 64.4687 10.585 65.7553 11.9298V10.3017ZM58.1213 17.2751C58.1213 18.6198 58.4787 19.7148 59.1935 20.5601C59.9274 21.415 60.8518 21.8424 61.9669 21.8424C63.1582 21.8424 64.1208 21.4294 64.8546 20.6033C65.5885 19.7485 65.9554 18.6631 65.9554 17.3471C65.9554 16.0312 65.5885 14.9458 64.8546 14.091C64.1208 13.2553 63.1677 12.8375 61.9955 12.8375C60.89 12.8375 59.9655 13.2601 59.2221 14.1054C58.4883 14.9602 58.1213 16.0168 58.1213 17.2751Z" fill="white"/>
    <path d="M78.0193 0V24.335H74.8028V0H78.0193Z" fill="white"/>
    <path d="M87.0668 10.3017V24.335H83.8503V10.3017H87.0668ZM83.3642 4.46646C83.3642 3.89974 83.5691 3.40988 83.9789 2.99685C84.3887 2.58382 84.8795 2.37731 85.4514 2.37731C86.0327 2.37731 86.5283 2.58382 86.9381 2.99685C87.3479 3.40027 87.5528 3.89494 87.5528 4.48086C87.5528 5.06679 87.3479 5.56626 86.9381 5.97929C86.5378 6.39232 86.047 6.59883 85.4657 6.59883C84.8843 6.59883 84.3887 6.39232 83.9789 5.97929C83.5691 5.56626 83.3642 5.06198 83.3642 4.46646Z" fill="white"/>
    <path d="M105.578 18.0819H95.5996C95.6854 19.2346 96.0571 20.1519 96.7147 20.8339C97.3723 21.5062 98.2158 21.8424 99.2451 21.8424C100.046 21.8424 100.708 21.6503 101.232 21.2661C101.747 20.8819 102.333 20.1711 102.991 19.1337L105.707 20.661C105.287 21.3814 104.844 22.0009 104.377 22.5196C103.91 23.0287 103.41 23.4513 102.876 23.7875C102.342 24.1141 101.766 24.3542 101.146 24.5079C100.527 24.6616 99.855 24.7384 99.1307 24.7384C97.053 24.7384 95.3852 24.066 94.1272 22.7213C92.8692 21.367 92.2401 19.5708 92.2401 17.3327C92.2401 15.1139 92.8501 13.3177 94.07 11.9442C95.2994 10.5898 96.9291 9.91265 98.9591 9.91265C101.008 9.91265 102.628 10.5706 103.82 11.8865C105.001 13.1929 105.592 15.0035 105.592 17.3183L105.578 18.0819ZM102.276 15.4309C101.828 13.7019 100.746 12.8375 99.0306 12.8375C98.6399 12.8375 98.2729 12.8999 97.9298 13.0248C97.5867 13.14 97.2722 13.3129 96.9863 13.5434C96.7099 13.7644 96.4717 14.0333 96.2715 14.3503C96.0714 14.6673 95.9189 15.0275 95.8141 15.4309H102.276Z" fill="white"/>
    <path d="M109.627 26.1934H126.181V29.219H109.627V26.1934Z" fill="white"/>
    <path d="M141.024 0H144.255V24.335H141.024V22.8654C139.757 24.1141 138.323 24.7384 136.721 24.7384C134.815 24.7384 133.233 24.0372 131.975 22.6348C130.727 21.2037 130.103 19.4171 130.103 17.2751C130.103 15.1811 130.727 13.433 131.975 12.0306C133.214 10.6186 134.772 9.91265 136.65 9.91265C138.28 9.91265 139.738 10.585 141.024 11.9298V0ZM133.391 17.2751C133.391 18.6198 133.748 19.7148 134.463 20.5601C135.197 21.415 136.121 21.8424 137.236 21.8424C138.427 21.8424 139.39 21.4294 140.124 20.6033C140.858 19.7485 141.225 18.6631 141.225 17.3471C141.225 16.0312 140.858 14.9458 140.124 14.091C139.39 13.2553 138.437 12.8375 137.265 12.8375C136.159 12.8375 135.235 13.2601 134.491 14.1054C133.757 14.9602 133.391 16.0168 133.391 17.2751Z" fill="white"/>
    <path d="M158.163 12.6934L155.504 14.1198C155.085 13.2553 154.566 12.8231 153.946 12.8231C153.651 12.8231 153.398 12.9239 153.188 13.1256C152.979 13.3177 152.874 13.5675 152.874 13.8748C152.874 14.4127 153.493 14.9458 154.732 15.4741C156.438 16.2137 157.587 16.8957 158.178 17.52C158.769 18.1444 159.064 18.9848 159.064 20.0414C159.064 21.3958 158.568 22.5292 157.577 23.4417C156.615 24.3062 155.452 24.7384 154.089 24.7384C151.754 24.7384 150.101 23.5906 149.128 21.2949L151.873 20.0126C152.254 20.685 152.545 21.1124 152.745 21.2949C153.136 21.6599 153.603 21.8424 154.146 21.8424C155.233 21.8424 155.776 21.3429 155.776 20.344C155.776 19.7677 155.357 19.2298 154.518 18.7303C154.194 18.567 153.87 18.4085 153.546 18.2548C153.222 18.1012 152.893 17.9427 152.559 17.7794C151.625 17.3183 150.968 16.8573 150.587 16.3962C150.101 15.8103 149.858 15.0563 149.858 14.1342C149.858 12.9143 150.272 11.9057 151.101 11.1085C151.949 10.3113 152.979 9.91265 154.189 9.91265C155.971 9.91265 157.296 10.8396 158.163 12.6934Z" fill="white"/>
    <path d="M177.189 24.0036C177.189 24.6664 177.165 25.2475 177.118 25.747C177.08 26.256 177.022 26.7027 176.946 27.0869C176.718 28.1435 176.27 29.0512 175.602 29.81C174.344 31.27 172.615 32 170.413 32C168.555 32 167.025 31.4957 165.824 30.4872C164.585 29.4498 163.87 28.0138 163.68 26.1792H166.911C167.035 26.8708 167.239 27.4039 167.525 27.7785C168.192 28.6526 169.165 29.0896 170.442 29.0896C172.796 29.0896 173.973 27.6344 173.973 24.724V22.7645C172.696 24.0804 171.223 24.7384 169.555 24.7384C167.659 24.7384 166.105 24.0468 164.895 22.6637C163.675 21.2613 163.065 19.5083 163.065 17.4048C163.065 15.3588 163.632 13.6203 164.766 12.1891C165.986 10.6715 167.597 9.91265 169.598 9.91265C171.352 9.91265 172.81 10.5706 173.973 11.8865V10.3017H177.189V24.0036ZM174.101 17.3471C174.101 15.9832 173.739 14.893 173.015 14.0765C172.281 13.2409 171.342 12.8231 170.199 12.8231C168.979 12.8231 168.016 13.2793 167.311 14.1918C166.672 15.0083 166.353 16.0648 166.353 17.3615C166.353 18.6391 166.672 19.686 167.311 20.5025C168.007 21.3958 168.969 21.8424 170.199 21.8424C171.428 21.8424 172.4 21.391 173.115 20.4881C173.773 19.6716 174.101 18.6246 174.101 17.3471Z" fill="white"/>
    <path d="M183.006 10.3017H186.237V11.5984C187.361 10.4746 188.629 9.91265 190.039 9.91265C191.66 9.91265 192.922 10.4265 193.828 11.4543C194.609 12.3284 195 13.7548 195 15.7335V24.335H191.769V16.4971C191.769 15.1139 191.579 14.1582 191.197 13.6299C190.826 13.092 190.149 12.8231 189.167 12.8231C188.1 12.8231 187.342 13.1784 186.894 13.8892C186.456 14.5904 186.237 15.8151 186.237 17.5633V24.335H183.006V10.3017Z" fill="white"/>
</svg>
