<svg width="110" height="18" viewBox="0 0 110 18" fill="none"
    xmlns="http://www.w3.org/2000/svg">
    <path d="M0 13.6884V0.324178L9.05457 9.87123V1.17515H10.9282V14.4502L1.87364 4.92751V13.6884H0Z" fill="#393939"/>
    <path d="M20.4884 5.79469H22.3058V13.6884H20.4884V12.8618C19.7432 13.5642 18.9418 13.9154 18.084 13.9154C17.0011 13.9154 16.1059 13.5209 15.3982 12.7321C14.696 11.9271 14.3448 10.9221 14.3448 9.71724C14.3448 8.53399 14.696 7.54795 15.3982 6.75912C16.1005 5.97028 16.9797 5.57587 18.0358 5.57587C18.9472 5.57587 19.7647 5.95407 20.4884 6.71049V5.79469ZM16.1943 9.71724C16.1943 10.4737 16.3954 11.0896 16.7974 11.5651C17.2102 12.0459 17.7302 12.2864 18.3575 12.2864C19.0276 12.2864 19.569 12.054 19.9818 11.5894C20.3946 11.1085 20.601 10.498 20.601 9.75777C20.601 9.01756 20.3946 8.40702 19.9818 7.92616C19.569 7.4561 19.0329 7.22107 18.3735 7.22107C17.7517 7.22107 17.2317 7.4588 16.8135 7.93426C16.4007 8.41513 16.1943 9.00945 16.1943 9.71724Z" fill="#393939"/>
    <path d="M27.4432 7.49662V13.6884H25.6339V7.49662H24.8619V5.79469H25.6339V2.9014H27.4432V5.79469H28.8505V7.49662H27.4432Z" fill="#393939"/>
    <path d="M36.9873 5.79469H38.8047V13.6884H36.9873V12.8618C36.2422 13.5642 35.4407 13.9154 34.583 13.9154C33.5001 13.9154 32.6048 13.5209 31.8972 12.7321C31.1949 11.9271 30.8437 10.9221 30.8437 9.71724C30.8437 8.53399 31.1949 7.54795 31.8972 6.75912C32.5994 5.97028 33.4786 5.57587 34.5347 5.57587C35.4461 5.57587 36.2636 5.95407 36.9873 6.71049V5.79469ZM32.6933 9.71724C32.6933 10.4737 32.8943 11.0896 33.2964 11.5651C33.7091 12.0459 34.2292 12.2864 34.8564 12.2864C35.5265 12.2864 36.0679 12.054 36.4807 11.5894C36.8935 11.1085 37.0999 10.498 37.0999 9.75777C37.0999 9.01756 36.8935 8.40702 36.4807 7.92616C36.0679 7.4561 35.5319 7.22107 34.8725 7.22107C34.2506 7.22107 33.7306 7.4588 33.3124 7.93426C32.8997 8.41513 32.6933 9.00945 32.6933 9.71724Z" fill="#393939"/>
    <path d="M43.8859 0V13.6884H42.0766V0H43.8859Z" fill="#393939"/>
    <path d="M48.9751 5.79469V13.6884H47.1658V5.79469H48.9751ZM46.8924 2.51238C46.8924 2.19361 47.0076 1.91805 47.2381 1.68573C47.4687 1.4534 47.7447 1.33724 48.0664 1.33724C48.3934 1.33724 48.6722 1.4534 48.9027 1.68573C49.1332 1.91265 49.2485 2.1909 49.2485 2.52049C49.2485 2.85007 49.1332 3.13102 48.9027 3.36335C48.6775 3.59568 48.4015 3.71184 48.0744 3.71184C47.7474 3.71184 47.4687 3.59568 47.2381 3.36335C47.0076 3.13102 46.8924 2.84737 46.8924 2.51238Z" fill="#393939"/>
    <path d="M59.3877 10.1711H53.7748C53.823 10.8194 54.0321 11.3354 54.402 11.719C54.7719 12.0973 55.2464 12.2864 55.8253 12.2864C56.2757 12.2864 56.6482 12.1783 56.9431 11.9622C57.2326 11.7461 57.5623 11.3462 57.9322 10.7627L59.46 11.6218C59.2242 12.027 58.9749 12.3755 58.7122 12.6673C58.4495 12.9536 58.1681 13.1914 57.8678 13.3805C57.5676 13.5642 57.2433 13.6992 56.8948 13.7857C56.5464 13.8721 56.1684 13.9154 55.761 13.9154C54.5923 13.9154 53.6542 13.5371 52.9465 12.7807C52.2389 12.0189 51.8851 11.0086 51.8851 9.74966C51.8851 8.50158 52.2282 7.49122 52.9144 6.71859C53.6059 5.95678 54.5226 5.57587 55.6645 5.57587C56.8171 5.57587 57.7285 5.94597 58.3986 6.68618C59.0633 7.42098 59.3957 8.43944 59.3957 9.74156L59.3877 10.1711ZM57.5301 8.67987C57.2782 7.70734 56.6697 7.22107 55.7047 7.22107C55.4849 7.22107 55.2785 7.25619 55.0855 7.32643C54.8925 7.39126 54.7156 7.48852 54.5548 7.61819C54.3993 7.74246 54.2653 7.89374 54.1527 8.07204C54.0402 8.25034 53.9544 8.45295 53.8954 8.67987H57.5301Z" fill="#393939"/>
    <path d="M61.665 14.7344H70.9769V16.4363H61.665V14.7344Z" fill="#393939"/>
    <path d="M79.3262 0H81.1436V13.6884H79.3262V12.8618C78.6132 13.5642 77.8064 13.9154 76.9058 13.9154C75.8336 13.9154 74.9437 13.5209 74.236 12.7321C73.5338 11.9271 73.1826 10.9221 73.1826 9.71724C73.1826 8.5394 73.5338 7.55606 74.236 6.76722C74.933 5.97299 75.8095 5.57587 76.8656 5.57587C77.7823 5.57587 78.6025 5.95407 79.3262 6.71049V0ZM75.0321 9.71724C75.0321 10.4737 75.2332 11.0896 75.6352 11.5651C76.048 12.0459 76.568 12.2864 77.1953 12.2864C77.8654 12.2864 78.4068 12.054 78.8196 11.5894C79.2324 11.1085 79.4388 10.498 79.4388 9.75777C79.4388 9.01756 79.2324 8.40702 78.8196 7.92616C78.4068 7.4561 77.8707 7.22107 77.2113 7.22107C76.5895 7.22107 76.0695 7.4588 75.6513 7.93426C75.2385 8.41513 75.0321 9.00945 75.0321 9.71724Z" fill="#393939"/>
    <path d="M88.9668 7.14003L87.4711 7.94237C87.2353 7.4561 86.9431 7.21297 86.5946 7.21297C86.4284 7.21297 86.2864 7.2697 86.1684 7.38316C86.0505 7.49122 85.9915 7.6317 85.9915 7.80459C85.9915 8.10716 86.34 8.40702 87.0369 8.70419C87.9965 9.12022 88.6425 9.50383 88.9749 9.85502C89.3072 10.2062 89.4734 10.679 89.4734 11.2733C89.4734 12.0351 89.1947 12.6727 88.6371 13.186C88.0957 13.6722 87.4417 13.9154 86.675 13.9154C85.3616 13.9154 84.4315 13.2697 83.8847 11.9784L85.4286 11.2571C85.6431 11.6353 85.8066 11.8757 85.9192 11.9784C86.139 12.1837 86.4016 12.2864 86.7072 12.2864C87.3184 12.2864 87.6239 12.0054 87.6239 11.4435C87.6239 11.1193 87.388 10.8167 86.9163 10.5358C86.734 10.4439 86.5517 10.3548 86.3695 10.2683C86.1872 10.1819 86.0023 10.0928 85.8146 10.0009C85.2893 9.74156 84.9194 9.48221 84.7049 9.22287C84.4315 8.89329 84.2948 8.46916 84.2948 7.95047C84.2948 7.2643 84.528 6.69698 84.9944 6.24854C85.4715 5.80009 86.0505 5.57587 86.7313 5.57587C87.7338 5.57587 88.479 6.09725 88.9668 7.14003Z" fill="#393939"/>
    <path d="M99.6689 13.502C99.6689 13.8748 99.6555 14.2017 99.6287 14.4827C99.6073 14.769 99.5751 15.0203 99.5322 15.2364C99.4035 15.8307 99.1516 16.3413 98.7763 16.7681C98.0687 17.5894 97.0957 18 95.8573 18C94.8119 18 93.9515 17.7163 93.276 17.149C92.5791 16.5655 92.177 15.7578 92.0698 14.7258H93.8872C93.9569 15.1148 94.0721 15.4147 94.233 15.6254C94.6082 16.1171 95.155 16.3629 95.8734 16.3629C97.1975 16.3629 97.8596 15.5443 97.8596 13.9072V12.805C97.1412 13.5452 96.313 13.9154 95.3748 13.9154C94.308 13.9154 93.4342 13.5263 92.7533 12.7483C92.0671 11.9595 91.724 10.9734 91.724 9.79018C91.724 8.63935 92.043 7.66141 92.681 6.85637C93.3672 6.0027 94.2732 5.57587 95.3989 5.57587C96.3854 5.57587 97.2056 5.94597 97.8596 6.68618V5.79469H99.6689V13.502ZM97.932 9.75777C97.932 8.99055 97.7283 8.37731 97.3208 7.91805C96.908 7.448 96.38 7.21297 95.7367 7.21297C95.0505 7.21297 94.509 7.46961 94.1123 7.98289C93.7531 8.44214 93.5736 9.03647 93.5736 9.76587C93.5736 10.4845 93.7531 11.0734 94.1123 11.5326C94.5037 12.0351 95.0451 12.2864 95.7367 12.2864C96.4282 12.2864 96.9751 12.0324 97.3771 11.5245C97.747 11.0653 97.932 10.4764 97.932 9.75777Z" fill="#393939"/>
    <path d="M102.941 5.79469H104.758V6.52409C105.391 5.89194 106.104 5.57587 106.897 5.57587C107.808 5.57587 108.519 5.86493 109.028 6.44304C109.468 6.93471 109.687 7.73705 109.687 8.85007V13.6884H107.87V9.2796C107.87 8.50158 107.763 7.96398 107.548 7.66682C107.339 7.36425 106.959 7.21297 106.407 7.21297C105.806 7.21297 105.38 7.41288 105.128 7.8127C104.881 8.20711 104.758 8.89599 104.758 9.87933V13.6884H102.941V5.79469Z" fill="#393939"/>
</svg>