<svg width="195" height="32" viewBox="0 0 195 32" fill="none"
    xmlns="http://www.w3.org/2000/svg">
    <path d="M0 24.335V0.576317L16.097 17.5489V2.08915H19.4279V25.6893L3.33091 8.76002V24.335H0Z" fill="#4C90FF"/>
    <path d="M36.4238 10.3017H39.6547V24.335H36.4238V22.8654C35.0991 24.1141 33.6743 24.7384 32.1494 24.7384C30.2243 24.7384 28.6327 24.0372 27.3746 22.6348C26.1261 21.2037 25.5019 19.4171 25.5019 17.2751C25.5019 15.1715 26.1261 13.4186 27.3746 12.0162C28.6231 10.6138 30.1861 9.91265 32.0636 9.91265C33.6838 9.91265 35.1372 10.585 36.4238 11.9298V10.3017ZM28.7899 17.2751C28.7899 18.6198 29.1473 19.7148 29.8621 20.5601C30.5959 21.415 31.5204 21.8424 32.6355 21.8424C33.8268 21.8424 34.7894 21.4294 35.5232 20.6033C36.2571 19.7485 36.624 18.6631 36.624 17.3471C36.624 16.0312 36.2571 14.9458 35.5232 14.091C34.7894 13.2553 33.8363 12.8375 32.6641 12.8375C31.5585 12.8375 30.6341 13.2601 29.8907 14.1054C29.1568 14.9602 28.7899 16.0168 28.7899 17.2751Z" fill="#4C90FF"/>
    <path d="M48.7879 13.3273V24.335H45.5714V13.3273H44.199V10.3017H45.5714V5.15804H48.7879V10.3017H51.2897V13.3273H48.7879Z" fill="#4C90FF"/>
    <path d="M65.7553 10.3017H68.9861V24.335H65.7553V22.8654C64.4305 24.1141 63.0057 24.7384 61.4808 24.7384C59.5557 24.7384 57.9641 24.0372 56.7061 22.6348C55.4576 21.2037 54.8333 19.4171 54.8333 17.2751C54.8333 15.1715 55.4576 13.4186 56.7061 12.0162C57.9546 10.6138 59.5176 9.91265 61.3951 9.91265C63.0153 9.91265 64.4687 10.585 65.7553 11.9298V10.3017ZM58.1213 17.2751C58.1213 18.6198 58.4787 19.7148 59.1935 20.5601C59.9274 21.415 60.8518 21.8424 61.9669 21.8424C63.1582 21.8424 64.1208 21.4294 64.8546 20.6033C65.5885 19.7485 65.9554 18.6631 65.9554 17.3471C65.9554 16.0312 65.5885 14.9458 64.8546 14.091C64.1208 13.2553 63.1677 12.8375 61.9955 12.8375C60.89 12.8375 59.9655 13.2601 59.2221 14.1054C58.4883 14.9602 58.1213 16.0168 58.1213 17.2751Z" fill="#4C90FF"/>
    <path d="M78.0193 0V24.335H74.8028V0H78.0193Z" fill="#4C90FF"/>
    <path d="M87.0668 10.3017V24.335H83.8503V10.3017H87.0668ZM83.3642 4.46646C83.3642 3.89974 83.5691 3.40988 83.9789 2.99685C84.3887 2.58382 84.8795 2.37731 85.4514 2.37731C86.0327 2.37731 86.5283 2.58382 86.9381 2.99685C87.3479 3.40027 87.5528 3.89494 87.5528 4.48086C87.5528 5.06679 87.3479 5.56626 86.9381 5.97929C86.5378 6.39232 86.047 6.59883 85.4657 6.59883C84.8843 6.59883 84.3887 6.39232 83.9789 5.97929C83.5691 5.56626 83.3642 5.06198 83.3642 4.46646Z" fill="#4C90FF"/>
    <path d="M105.578 18.0819H95.5996C95.6854 19.2346 96.0571 20.1519 96.7147 20.8339C97.3723 21.5062 98.2158 21.8424 99.2451 21.8424C100.046 21.8424 100.708 21.6503 101.232 21.2661C101.747 20.8819 102.333 20.1711 102.991 19.1337L105.707 20.661C105.287 21.3814 104.844 22.0009 104.377 22.5196C103.91 23.0287 103.41 23.4513 102.876 23.7875C102.342 24.1141 101.766 24.3542 101.146 24.5079C100.527 24.6616 99.855 24.7384 99.1307 24.7384C97.053 24.7384 95.3852 24.066 94.1272 22.7213C92.8692 21.367 92.2401 19.5708 92.2401 17.3327C92.2401 15.1139 92.8501 13.3177 94.07 11.9442C95.2994 10.5898 96.9291 9.91265 98.9591 9.91265C101.008 9.91265 102.628 10.5706 103.82 11.8865C105.001 13.1929 105.592 15.0035 105.592 17.3183L105.578 18.0819ZM102.276 15.4309C101.828 13.7019 100.746 12.8375 99.0306 12.8375C98.6399 12.8375 98.2729 12.8999 97.9298 13.0248C97.5867 13.14 97.2722 13.3129 96.9863 13.5434C96.7099 13.7644 96.4717 14.0333 96.2715 14.3503C96.0714 14.6673 95.9189 15.0275 95.8141 15.4309H102.276Z" fill="#4C90FF"/>
    <path d="M109.627 26.1934H126.181V29.219H109.627V26.1934Z" fill="#4C90FF"/>
    <path d="M141.023 0H144.254V24.335H141.023V22.8654C139.756 24.1141 138.322 24.7384 136.72 24.7384C134.814 24.7384 133.232 24.0372 131.974 22.6348C130.726 21.2037 130.102 19.4171 130.102 17.2751C130.102 15.1811 130.726 13.433 131.974 12.0306C133.213 10.6186 134.771 9.91265 136.649 9.91265C138.279 9.91265 139.737 10.585 141.023 11.9298V0ZM133.39 17.2751C133.39 18.6198 133.747 19.7148 134.462 20.5601C135.196 21.415 136.12 21.8424 137.235 21.8424C138.426 21.8424 139.389 21.4294 140.123 20.6033C140.857 19.7485 141.224 18.6631 141.224 17.3471C141.224 16.0312 140.857 14.9458 140.123 14.091C139.389 13.2553 138.436 12.8375 137.264 12.8375C136.158 12.8375 135.234 13.2601 134.49 14.1054C133.757 14.9602 133.39 16.0168 133.39 17.2751Z" fill="#4C90FF"/>
    <path d="M158.162 12.6934L155.503 14.1198C155.084 13.2553 154.565 12.8231 153.945 12.8231C153.65 12.8231 153.397 12.9239 153.187 13.1256C152.978 13.3177 152.873 13.5675 152.873 13.8748C152.873 14.4127 153.492 14.9458 154.731 15.4741C156.437 16.2137 157.586 16.8957 158.177 17.52C158.768 18.1444 159.063 18.9848 159.063 20.0414C159.063 21.3958 158.567 22.5292 157.576 23.4417C156.614 24.3062 155.451 24.7384 154.088 24.7384C151.753 24.7384 150.1 23.5906 149.127 21.2949L151.872 20.0126C152.253 20.685 152.544 21.1124 152.744 21.2949C153.135 21.6599 153.602 21.8424 154.145 21.8424C155.232 21.8424 155.775 21.3429 155.775 20.344C155.775 19.7677 155.356 19.2298 154.517 18.7303C154.193 18.567 153.869 18.4085 153.545 18.2548C153.221 18.1012 152.892 17.9427 152.558 17.7794C151.624 17.3183 150.967 16.8573 150.586 16.3962C150.1 15.8103 149.857 15.0563 149.857 14.1342C149.857 12.9143 150.271 11.9057 151.1 11.1085C151.949 10.3113 152.978 9.91265 154.188 9.91265C155.97 9.91265 157.295 10.8396 158.162 12.6934Z" fill="#4C90FF"/>
    <path d="M177.188 24.0036C177.188 24.6664 177.164 25.2475 177.117 25.747C177.079 26.256 177.022 26.7027 176.945 27.0869C176.717 28.1435 176.269 29.0512 175.601 29.81C174.343 31.27 172.614 32 170.412 32C168.554 32 167.024 31.4957 165.823 30.4872C164.584 29.4498 163.869 28.0138 163.679 26.1792H166.91C167.034 26.8708 167.238 27.4039 167.524 27.7785C168.192 28.6526 169.164 29.0896 170.441 29.0896C172.795 29.0896 173.972 27.6344 173.972 24.724V22.7645C172.695 24.0804 171.222 24.7384 169.554 24.7384C167.658 24.7384 166.104 24.0468 164.894 22.6637C163.674 21.2613 163.064 19.5083 163.064 17.4048C163.064 15.3588 163.631 13.6203 164.765 12.1891C165.985 10.6715 167.596 9.91265 169.597 9.91265C171.351 9.91265 172.809 10.5706 173.972 11.8865V10.3017H177.188V24.0036ZM174.1 17.3471C174.1 15.9832 173.738 14.893 173.014 14.0765C172.28 13.2409 171.341 12.8231 170.198 12.8231C168.978 12.8231 168.015 13.2793 167.31 14.1918C166.671 15.0083 166.352 16.0648 166.352 17.3615C166.352 18.6391 166.671 19.686 167.31 20.5025C168.006 21.3958 168.968 21.8424 170.198 21.8424C171.427 21.8424 172.399 21.391 173.114 20.4881C173.772 19.6716 174.1 18.6246 174.1 17.3471Z" fill="#4C90FF"/>
    <path d="M183.005 10.3017H186.236V11.5984C187.36 10.4746 188.628 9.91265 190.038 9.91265C191.659 9.91265 192.921 10.4265 193.827 11.4543C194.608 12.3284 194.999 13.7548 194.999 15.7335V24.335H191.768V16.4971C191.768 15.1139 191.578 14.1582 191.196 13.6299C190.825 13.092 190.148 12.8231 189.166 12.8231C188.099 12.8231 187.341 13.1784 186.893 13.8892C186.455 14.5904 186.236 15.8151 186.236 17.5633V24.335H183.005V10.3017Z" fill="#4C90FF"/>
</svg>
    