<svg width="24" height="24" viewBox="0 0 24 24" fill="none"
    xmlns="http://www.w3.org/2000/svg">
    <path d="M18 14V19C18 19.5304 17.7893 20.0391 17.4142 20.4142C17.0391 20.7893 16.5304 21 16 21H5C4.46957 21 3.96086 20.7893 3.58579 20.4142C3.21071 20.0391 3 19.5304 3 19V8C3 7.46957 3.21071 6.96086 3.58579 6.58579C3.96086 6.21071 4.46957 6 5 6H7" stroke="black" stroke-width="1.5"/>
    <path d="M17 2L21 6L17 10" stroke="black" stroke-width="1.5"/>
    <path d="M10.5 17V10C10.5 8.93913 10.9214 7.92172 11.6716 7.17157C12.4217 6.42143 13.4391 6 14.5 6H20" stroke="black" stroke-width="1.5"/>
</svg>
    