<svg width="181" height="33" viewBox="0 0 181 33" fill="none"
    xmlns="http://www.w3.org/2000/svg">
    <path d="M162 16H175" stroke="#5D5FEF" stroke-width="1.5"/>
    <path d="M169 9L176 16L169 23" stroke="#5D5FEF" stroke-width="1.5"/>
    <path d="M11.9297 8.86719H15.5977L9.77344 26H5.8125L0 8.86719H3.66797L6.89062 19.0625C7.07031 19.6641 7.25391 20.3672 7.44141 21.1719C7.63672 21.9688 7.75781 22.5234 7.80469 22.8359C7.89062 22.1172 8.18359 20.8594 8.68359 19.0625L11.9297 8.86719ZM17.332 9.51172C17.332 8.34766 17.9805 7.76562 19.2773 7.76562C20.5742 7.76562 21.2227 8.34766 21.2227 9.51172C21.2227 10.0664 21.0586 10.5 20.7305 10.8125C20.4102 11.1172 19.9258 11.2695 19.2773 11.2695C17.9805 11.2695 17.332 10.6836 17.332 9.51172ZM21.0586 26H17.4844V12.8984H21.0586V26ZM30.2461 15.1953C29.4883 15.1953 28.8945 15.4375 28.4648 15.9219C28.0352 16.3984 27.7891 17.0781 27.7266 17.9609H32.7422C32.7266 17.0781 32.4961 16.3984 32.0508 15.9219C31.6055 15.4375 31.0039 15.1953 30.2461 15.1953ZM30.75 26.2344C28.6406 26.2344 26.9922 25.6523 25.8047 24.4883C24.6172 23.3242 24.0234 21.6758 24.0234 19.543C24.0234 17.3477 24.5703 15.6523 25.6641 14.457C26.7656 13.2539 28.2852 12.6523 30.2227 12.6523C32.0742 12.6523 33.5156 13.1797 34.5469 14.2344C35.5781 15.2891 36.0938 16.7461 36.0938 18.6055V20.3398H27.6445C27.6836 21.3555 27.9844 22.1484 28.5469 22.7188C29.1094 23.2891 29.8984 23.5742 30.9141 23.5742C31.7031 23.5742 32.4492 23.4922 33.1523 23.3281C33.8555 23.1641 34.5898 22.9023 35.3555 22.543V25.3086C34.7305 25.6211 34.0625 25.8516 33.3516 26C32.6406 26.1562 31.7734 26.2344 30.75 26.2344ZM49.7695 26L48.7617 21.418L47.4023 15.6289H47.3203L44.9297 26H41.0859L37.3594 12.8984H40.9219L42.4336 18.6992C42.6758 19.7383 42.9219 21.1719 43.1719 23H43.2422C43.2734 22.4062 43.4102 21.4648 43.6523 20.1758L43.8398 19.1797L45.457 12.8984H49.3945L50.9297 19.1797C50.9609 19.3516 51.0078 19.6055 51.0703 19.9414C51.1406 20.2773 51.207 20.6367 51.2695 21.0195C51.332 21.3945 51.3867 21.7656 51.4336 22.1328C51.4883 22.4922 51.5195 22.7812 51.5273 23H51.5977C51.668 22.4375 51.793 21.668 51.9727 20.6914C52.1523 19.707 52.2812 19.043 52.3594 18.6992L53.9297 12.8984H57.4336L53.6602 26H49.7695ZM72.9844 26.2344C71.4453 26.2344 70.2383 25.6758 69.3633 24.5586H69.1758C69.3008 25.6523 69.3633 26.2852 69.3633 26.457V31.7656H65.7891V12.8984H68.6953L69.1992 14.5977H69.3633C70.1992 13.3008 71.4375 12.6523 73.0781 12.6523C74.625 12.6523 75.8359 13.25 76.7109 14.4453C77.5859 15.6406 78.0234 17.3008 78.0234 19.4258C78.0234 20.8242 77.8164 22.0391 77.4023 23.0703C76.9961 24.1016 76.4141 24.8867 75.6562 25.4258C74.8984 25.9648 74.0078 26.2344 72.9844 26.2344ZM71.9297 15.5117C71.0469 15.5117 70.4023 15.7852 69.9961 16.332C69.5898 16.8711 69.3789 17.7656 69.3633 19.0156V19.4023C69.3633 20.8086 69.5703 21.8164 69.9844 22.4258C70.4062 23.0352 71.0703 23.3398 71.9766 23.3398C73.5781 23.3398 74.3789 22.0195 74.3789 19.3789C74.3789 18.0898 74.1797 17.125 73.7812 16.4844C73.3906 15.8359 72.7734 15.5117 71.9297 15.5117ZM88.2891 12.6523C88.7734 12.6523 89.1758 12.6875 89.4961 12.7578L89.2266 16.1094C88.9375 16.0312 88.5859 15.9922 88.1719 15.9922C87.0312 15.9922 86.1406 16.2852 85.5 16.8711C84.8672 17.457 84.5508 18.2773 84.5508 19.332V26H80.9766V12.8984H83.6836L84.2109 15.1016H84.3867C84.793 14.3672 85.3398 13.7773 86.0273 13.332C86.7227 12.8789 87.4766 12.6523 88.2891 12.6523ZM94.7227 19.4258C94.7227 20.7227 94.9336 21.7031 95.3555 22.3672C95.7852 23.0312 96.4805 23.3633 97.4414 23.3633C98.3945 23.3633 99.0781 23.0352 99.4922 22.3789C99.9141 21.7148 100.125 20.7305 100.125 19.4258C100.125 18.1289 99.9141 17.1562 99.4922 16.5078C99.0703 15.8594 98.3789 15.5352 97.418 15.5352C96.4648 15.5352 95.7773 15.8594 95.3555 16.5078C94.9336 17.1484 94.7227 18.1211 94.7227 19.4258ZM103.781 19.4258C103.781 21.5586 103.219 23.2266 102.094 24.4297C100.969 25.6328 99.4023 26.2344 97.3945 26.2344C96.1367 26.2344 95.0273 25.9609 94.0664 25.4141C93.1055 24.8594 92.3672 24.0664 91.8516 23.0352C91.3359 22.0039 91.0781 20.8008 91.0781 19.4258C91.0781 17.2852 91.6367 15.6211 92.7539 14.4336C93.8711 13.2461 95.4414 12.6523 97.4648 12.6523C98.7227 12.6523 99.832 12.9258 100.793 13.4727C101.754 14.0195 102.492 14.8047 103.008 15.8281C103.523 16.8516 103.781 18.0508 103.781 19.4258ZM105.68 31.7656C104.766 31.7656 103.98 31.668 103.324 31.4727V28.6602C103.871 28.8086 104.43 28.8828 105 28.8828C105.602 28.8828 106.039 28.7148 106.312 28.3789C106.594 28.043 106.734 27.5469 106.734 26.8906V12.8984H110.309V27.418C110.309 28.8086 109.906 29.8789 109.102 30.6289C108.297 31.3867 107.156 31.7656 105.68 31.7656ZM106.582 9.51172C106.582 8.34766 107.23 7.76562 108.527 7.76562C109.824 7.76562 110.473 8.34766 110.473 9.51172C110.473 10.0664 110.309 10.5 109.98 10.8125C109.66 11.1172 109.176 11.2695 108.527 11.2695C107.23 11.2695 106.582 10.6836 106.582 9.51172ZM119.496 15.1953C118.738 15.1953 118.145 15.4375 117.715 15.9219C117.285 16.3984 117.039 17.0781 116.977 17.9609H121.992C121.977 17.0781 121.746 16.3984 121.301 15.9219C120.855 15.4375 120.254 15.1953 119.496 15.1953ZM120 26.2344C117.891 26.2344 116.242 25.6523 115.055 24.4883C113.867 23.3242 113.273 21.6758 113.273 19.543C113.273 17.3477 113.82 15.6523 114.914 14.457C116.016 13.2539 117.535 12.6523 119.473 12.6523C121.324 12.6523 122.766 13.1797 123.797 14.2344C124.828 15.2891 125.344 16.7461 125.344 18.6055V20.3398H116.895C116.934 21.3555 117.234 22.1484 117.797 22.7188C118.359 23.2891 119.148 23.5742 120.164 23.5742C120.953 23.5742 121.699 23.4922 122.402 23.3281C123.105 23.1641 123.84 22.9023 124.605 22.543V25.3086C123.98 25.6211 123.312 25.8516 122.602 26C121.891 26.1562 121.023 26.2344 120 26.2344ZM133.57 26.2344C129.492 26.2344 127.453 23.9961 127.453 19.5195C127.453 17.293 128.008 15.5938 129.117 14.4219C130.227 13.2422 131.816 12.6523 133.887 12.6523C135.402 12.6523 136.762 12.9492 137.965 13.543L136.91 16.3086C136.348 16.082 135.824 15.8984 135.34 15.7578C134.855 15.6094 134.371 15.5352 133.887 15.5352C132.027 15.5352 131.098 16.8555 131.098 19.4961C131.098 22.0586 132.027 23.3398 133.887 23.3398C134.574 23.3398 135.211 23.25 135.797 23.0703C136.383 22.8828 136.969 22.5938 137.555 22.2031V25.2617C136.977 25.6289 136.391 25.8828 135.797 26.0234C135.211 26.1641 134.469 26.2344 133.57 26.2344ZM146.121 23.3867C146.746 23.3867 147.496 23.25 148.371 22.9766V25.6367C147.48 26.0352 146.387 26.2344 145.09 26.2344C143.66 26.2344 142.617 25.875 141.961 25.1562C141.312 24.4297 140.988 23.3438 140.988 21.8984V15.582H139.277V14.0703L141.246 12.875L142.277 10.1094H144.562V12.8984H148.23V15.582H144.562V21.8984C144.562 22.4062 144.703 22.7812 144.984 23.0234C145.273 23.2656 145.652 23.3867 146.121 23.3867Z" fill="#5D5FEF"/>
</svg>
    