<svg width="32" height="32" viewBox="0 0 32 32" fill="none"
    xmlns="http://www.w3.org/2000/svg">
    <path d="M27.9997 15.3334C28.0043 17.0932 27.5931 18.8292 26.7997 20.4C25.859 22.2824 24.4127 23.8656 22.623 24.9724C20.8332 26.0792 18.7707 26.6659 16.6664 26.6667C14.9066 26.6713 13.1705 26.2601 11.5997 25.4667L5.33309 26.6667L6.53305 20.4C5.73962 18.8292 5.32846 17.0932 5.33305 15.3334C5.33386 13.229 5.92053 11.1665 7.02734 9.37677C8.13415 7.58704 9.71739 6.14079 11.5997 5.20004C13.1705 4.40661 14.9066 3.99545 16.6664 4.00004H17.333C20.1122 4.15336 22.7371 5.32639 24.7052 7.29452C26.6734 9.26265 27.8464 11.8876 27.9997 14.6667V15.3334Z" stroke="white" stroke-width="1.5" stroke-linecap="round" stroke-linejoin="round"/>
    <path d="M21.333 17.6538V19.0589C21.3336 19.1893 21.3068 19.3184 21.2544 19.4379C21.2021 19.5574 21.1253 19.6647 21.029 19.7529C20.9327 19.8411 20.819 19.9082 20.6952 19.95C20.5714 19.9918 20.4402 20.0073 20.31 19.9955C18.866 19.839 17.4789 19.3465 16.2602 18.5577C15.1263 17.8386 14.165 16.8792 13.4445 15.7476C12.6514 14.5258 12.1578 13.1347 12.0038 11.6871C11.9921 11.5575 12.0075 11.427 12.0491 11.3038C12.0907 11.1805 12.1575 11.0673 12.2454 10.9712C12.3332 10.8752 12.4401 10.7985 12.5593 10.7459C12.6785 10.6934 12.8074 10.6662 12.9377 10.6661H14.3455C14.5732 10.6638 14.794 10.7443 14.9667 10.8925C15.1394 11.0407 15.2522 11.2466 15.2841 11.4716C15.3435 11.9213 15.4537 12.3628 15.6126 12.7877C15.6757 12.9553 15.6894 13.1375 15.6519 13.3126C15.6145 13.4878 15.5275 13.6486 15.4014 13.7759L14.8054 14.3707C15.4734 15.5432 16.4462 16.5141 17.6211 17.1808L18.217 16.586C18.3446 16.4601 18.5057 16.3733 18.6812 16.3359C18.8567 16.2986 19.0393 16.3122 19.2072 16.3752C19.633 16.5338 20.0754 16.6438 20.5259 16.7031C20.7538 16.7352 20.962 16.8498 21.1109 17.025C21.2597 17.2003 21.3388 17.4241 21.333 17.6538Z" fill="white" stroke="white" stroke-width="1.5"/>
</svg>
    