<svg width="24" height="24" viewBox="0 0 24 24" fill="none"
    xmlns="http://www.w3.org/2000/svg">
    <path d="M21 11.5C21.0035 12.8199 20.6951 14.1219 20.1 15.3C19.3945 16.7118 18.3098 17.8992 16.9675 18.7293C15.6252 19.5594 14.0783 19.9994 12.5 20C11.1802 20.0035 9.87814 19.6951 8.70003 19.1L4.00006 20L4.90003 15.3C4.30496 14.1219 3.99659 12.8199 4.00003 11.5C4.00064 9.92179 4.44064 8.37488 5.27075 7.03258C6.10085 5.69028 7.28828 4.6056 8.70003 3.90003C9.87814 3.30496 11.1802 2.99659 12.5 3.00003H13C15.0844 3.11502 17.0531 3.99479 18.5292 5.47089C20.0053 6.94698 20.885 8.91568 21 11V11.5Z" stroke="black" stroke-width="1.5" stroke-linecap="round" stroke-linejoin="round"/>
    <path d="M15.9998 13.2408V14.2946C16.0002 14.3925 15.9801 14.4893 15.9408 14.5789C15.9016 14.6686 15.844 14.749 15.7717 14.8151C15.6995 14.8813 15.6142 14.9316 15.5214 14.963C15.4285 14.9943 15.3301 15.006 15.2325 14.9971C14.1495 14.8797 13.1092 14.5104 12.1951 13.9188C11.3447 13.3795 10.6237 12.6599 10.0834 11.8112C9.48855 10.8948 9.11838 9.85153 9.00286 8.76578C8.99406 8.66865 9.00563 8.57075 9.03682 8.47832C9.06801 8.38589 9.11815 8.30096 9.18403 8.22892C9.24992 8.15689 9.33011 8.09934 9.4195 8.05993C9.50889 8.02052 9.60553 8.00013 9.70325 8.00003H10.7591C10.9299 7.99836 11.0955 8.05872 11.225 8.16988C11.3545 8.28104 11.4391 8.4354 11.463 8.6042C11.5076 8.94144 11.5903 9.27256 11.7094 9.59125C11.7568 9.71697 11.767 9.85361 11.7389 9.98497C11.7109 10.1163 11.6457 10.2369 11.551 10.3324L11.104 10.7785C11.6051 11.6579 12.3347 12.386 13.2158 12.8861L13.6628 12.44C13.7585 12.3455 13.8793 12.2804 14.0109 12.2524C14.1425 12.2244 14.2794 12.2346 14.4054 12.2819C14.7247 12.4008 15.0565 12.4833 15.3944 12.5278C15.5654 12.5519 15.7215 12.6378 15.8331 12.7693C15.9448 12.9007 16.0041 13.0686 15.9998 13.2408Z" fill="black" stroke="black" stroke-width="1.5"/>
</svg>
    